<svg width="111" height="167" viewBox="0 0 111 167" fill="none" xmlns="http://www.w3.org/2000/svg">
<path d="M27.7237 166.184C43.0127 166.184 55.4211 153.776 55.4211 138.487V110.789H27.7237C12.4348 110.789 0.0263672 123.198 0.0263672 138.487C0.0263672 153.776 12.4348 166.184 27.7237 166.184Z" fill="#0CCF83"/>
<path d="M0.0263672 83.0921C0.0263672 67.8032 12.4348 55.3948 27.7237 55.3948H55.4211V110.79H27.7237C12.4348 110.79 0.0263672 98.3811 0.0263672 83.0921Z" fill="#A259FF"/>
<path d="M0.0263672 27.6974C0.0263672 12.4084 12.4348 0 27.7237 0H55.4211V55.3947H27.7237C12.4348 55.3947 0.0263672 42.9863 0.0263672 27.6974Z" fill="#F34E1D"/>
<path d="M55.4211 0H83.1185C98.4075 0 110.816 12.4084 110.816 27.6974C110.816 42.9863 98.4075 55.3947 83.1185 55.3947H55.4211V0Z" fill="#FF7163"/>
<path d="M110.816 83.0921C110.816 98.3811 98.4075 110.79 83.1185 110.79C67.8296 110.79 55.4211 98.3811 55.4211 83.0921C55.4211 67.8032 67.8296 55.3948 83.1185 55.3948C98.4075 55.3948 110.816 67.8032 110.816 83.0921Z" fill="#19BCFE"/>
</svg>
