<svg width="122" height="168" viewBox="0 0 122 168" fill="none" xmlns="http://www.w3.org/2000/svg">
<path d="M0.351929 135.03L1.35798 133.621L48.9489 43.3193L49.0495 42.3633L28.0703 2.95719C26.3127 -0.343788 21.3646 0.490813 20.7877 4.186L0.351929 135.03Z" fill="#FFC24A"/>
<path d="M64.3429 72.1705L79.9634 56.1727L64.3384 26.3444C62.8551 23.5209 58.7137 23.5128 57.2462 26.3444L48.8984 42.2652V43.6211L64.3429 72.1705Z" fill="#F4BD62"/>
<path d="M0.351929 135.03L0.807954 134.571L2.46484 133.898L63.362 73.227L64.1335 71.1267L48.9422 42.1783L0.351929 135.03Z" fill="#F6820C"/>
<path d="M66.294 165.628L121.407 134.89L105.669 37.962C105.176 34.9293 101.456 33.7304 99.2853 35.9049L0.352051 135.03L55.1493 165.625C58.6123 167.558 62.83 167.559 66.294 165.628Z" fill="#FDE068"/>
<path d="M120.913 134.632L105.294 38.4399C104.806 35.4303 101.712 34.1849 99.5578 36.3429L0.963135 134.841L55.1585 165.134C58.5952 167.053 62.7809 167.053 66.2186 165.136L120.913 134.632Z" fill="#FCCA3F"/>
<path d="M66.294 164.722C62.83 166.654 58.6123 166.653 55.1493 164.719L0.79341 134.564L0.352051 135.03L55.1493 165.625C58.6123 167.558 62.83 167.559 66.294 165.627L121.407 134.89L121.272 134.06L66.294 164.722Z" fill="#EEAB37"/>
</svg>
