<svg width="159" height="166" viewBox="0 0 159 166" fill="none" xmlns="http://www.w3.org/2000/svg">
<path d="M122.082 54.6578V34.8903C124.702 33.6694 126.92 31.7316 128.478 29.3026C130.036 26.8736 130.87 24.0532 130.883 21.1697V20.7162C130.883 12.309 124.049 5.49358 115.619 5.49358H115.164C106.733 5.49358 99.8992 12.309 99.8992 20.7162V21.1697C99.9125 24.0532 100.747 26.8736 102.305 29.3026C103.863 31.7316 106.081 33.6694 108.7 34.8903V54.6578C101.172 55.8076 94.0815 58.9207 88.1473 63.682L33.7836 21.4551C34.1713 20.0596 34.3735 18.6246 34.3963 17.1842C34.403 13.7916 33.4005 10.4733 31.5158 7.64897C29.631 4.82463 26.9487 2.62116 23.808 1.31728C20.6673 0.0134011 17.2095 -0.33231 13.8717 0.323876C10.534 0.980062 7.46642 2.60866 5.05697 5.00368C2.64752 7.3987 1.00447 10.4525 0.335649 13.7789C-0.333175 17.1053 0.00227706 20.5547 1.29957 23.6909C2.59687 26.8271 4.79772 29.5092 7.62375 31.3979C10.4498 33.2866 13.774 34.297 17.176 34.3014C20.1521 34.2874 23.0724 33.495 25.6454 32.0035L79.1781 73.545C69.3361 88.3717 69.5995 107.695 79.8411 122.25L63.5593 138.492C62.2426 138.072 60.8721 137.849 59.4902 137.831C51.6926 137.837 45.3756 144.144 45.3776 151.92C45.3796 159.695 51.7006 165.998 59.4976 166C67.2952 166.002 73.6189 159.702 73.6256 151.926C73.6072 150.549 73.3835 149.181 72.9619 147.869L89.069 131.8C103.461 142.849 123.228 143.801 138.621 134.187C154.013 124.572 161.781 106.42 158.093 88.6852C154.405 70.9496 140.039 57.3758 122.082 54.6571V54.6578ZM115.406 119.672C112.43 119.752 109.468 119.236 106.696 118.156C103.923 117.075 101.396 115.452 99.2628 113.381C97.1298 111.31 95.4344 108.834 94.2767 106.099C93.1191 103.365 92.5227 100.426 92.5227 97.4575C92.5227 94.4889 93.1191 91.5505 94.2767 88.8156C95.4344 86.0807 97.1298 83.6048 99.2628 81.5341C101.396 79.4634 103.923 77.8399 106.696 76.7595C109.468 75.679 112.43 75.1635 115.406 75.2433C127.397 75.662 136.903 85.4748 136.91 97.4414C136.916 109.407 127.42 119.23 115.428 119.66" fill="#FF7A59"/>
</svg>
