<svg width="535" height="537" viewBox="0 0 535 537" fill="none" xmlns="http://www.w3.org/2000/svg">
<path d="M0 36.8904C0 17.1209 16.5554 1.07401 36.9634 1.07401H463.175C483.591 1.07401 500.138 17.1209 500.138 36.8904V465.263C500.138 485.039 483.591 501.074 463.175 501.074H36.9634C16.5573 501.074 0 485.041 0 465.269V36.8846V36.8904Z" fill="#006699"/>
<path d="M151.988 419.508V194.406H77.1465V419.508H151.995H151.988ZM114.583 163.678C140.676 163.678 156.921 146.392 156.921 124.791C156.432 102.697 140.676 85.8943 115.079 85.8943C89.4643 85.8943 72.7351 102.697 72.7351 124.789C72.7351 146.39 88.974 163.676 114.092 163.676H114.577L114.583 163.678ZM193.413 419.508H268.248V293.814C268.248 287.095 268.737 280.359 270.714 275.56C276.122 262.113 288.435 248.193 309.115 248.193C336.189 248.193 347.026 268.834 347.026 299.097V419.508H421.859V290.441C421.859 221.303 384.943 189.129 335.704 189.129C295.336 189.129 277.606 211.685 267.756 227.049H268.254V194.414H193.417C194.394 215.531 193.411 419.515 193.411 419.515L193.413 419.508Z" fill="white"/>
</svg>
