<svg width="162" height="167" viewBox="0 0 162 167" fill="none" xmlns="http://www.w3.org/2000/svg">
<path d="M161.429 100.364C160.461 97.4295 157.924 95.3858 154.644 94.8953C153.097 94.6643 151.325 94.7628 149.229 95.1952C145.575 95.9494 142.865 96.2366 140.886 96.2921C148.353 83.6783 154.425 69.2941 157.921 55.7538C163.573 33.8594 160.553 23.8851 157.023 19.3736C147.682 7.43198 134.054 1.01684 117.613 0.820548C108.843 0.713251 101.143 2.44579 97.1266 3.69171C93.387 3.03151 89.366 2.66291 85.1469 2.59475C77.238 2.46851 70.2502 4.19348 64.2793 7.73872C60.9737 6.6203 55.6683 5.04366 49.5415 4.03758C35.1319 1.67072 23.5181 3.51498 15.0231 9.51923C4.73662 16.789 -0.0319134 29.4198 0.850004 47.0608C1.1301 52.6617 4.2616 69.7031 9.19226 85.8647C12.026 95.1541 15.0477 102.868 18.1736 108.795C22.6065 117.199 27.3498 122.148 32.6747 123.925C35.6592 124.92 41.082 125.617 46.7854 120.864C47.5083 121.74 48.4729 122.61 49.7529 123.419C51.3786 124.444 53.3663 125.283 55.3516 125.779C62.506 127.569 69.2074 127.121 74.9247 124.613C74.9601 125.63 74.9872 126.602 75.0099 127.442C75.0478 128.803 75.0856 130.138 75.1354 131.387C75.4742 139.828 76.0483 146.391 77.749 150.984C77.8424 151.236 77.9679 151.621 78.1004 152.029C78.9489 154.629 80.3676 158.98 83.9773 162.387C87.7151 165.918 92.2363 167 96.3772 167C98.4539 167 100.435 166.727 102.173 166.355C108.368 165.026 115.404 163.003 120.494 155.752C125.306 148.898 127.645 138.574 128.068 122.307C128.123 121.847 128.173 121.407 128.222 120.989L128.323 120.129L129.457 120.229L129.749 120.249C136.058 120.536 143.774 119.198 148.512 116.996C152.256 115.257 164.254 108.92 161.429 100.364" fill="black"/>
<path d="M150.64 102.027C131.879 105.9 130.589 99.5444 130.589 99.5444C150.397 70.1367 158.678 32.8078 151.533 23.6717C132.037 -1.24971 98.2905 10.5366 97.7271 10.8421L97.5461 10.8749C93.8393 10.1049 89.6915 9.64668 85.0289 9.57031C76.5403 9.43146 70.1007 11.7971 65.2142 15.5045C65.2142 15.5045 5.01289 -9.30903 7.81319 46.7117C8.40871 58.6293 24.8863 136.888 44.5396 113.25C51.723 104.606 58.6641 97.2981 58.6641 97.2981C62.111 99.5893 66.238 100.758 70.5643 100.338L70.9006 100.053C70.7958 101.126 70.8438 102.176 71.0349 103.419C65.9718 109.078 67.46 110.072 57.3387 112.156C47.097 114.268 53.1133 118.027 57.0416 119.011C61.8038 120.202 72.8208 121.889 80.2648 111.463L79.9683 112.653C81.9517 114.243 83.3446 122.993 83.1111 130.926C82.8777 138.859 82.7219 144.305 84.2845 148.559C85.8484 152.813 87.4059 162.385 100.712 159.533C111.829 157.149 117.59 150.972 118.392 140.667C118.961 133.342 120.248 134.425 120.329 127.875L121.362 124.775C122.552 114.845 121.551 111.641 128.4 113.131L130.065 113.278C135.106 113.507 141.704 112.466 145.577 110.666C153.916 106.794 158.861 100.329 150.639 102.027H150.64" fill="#336791"/>
<path d="M68.7381 52.0413C67.0474 51.8059 65.5164 52.0236 64.7417 52.6106C64.3064 52.9407 64.1714 53.3232 64.1348 53.5864C64.0377 54.2838 64.526 55.0551 64.8262 55.4527C65.6753 56.5787 66.9156 57.3525 68.1432 57.5229C68.3211 57.5482 68.4984 57.5596 68.6744 57.5596C70.7215 57.5596 72.5831 55.9646 72.7471 54.7875C72.9521 53.3131 70.8129 52.3304 68.7381 52.0419V52.0413ZM124.747 52.088C124.585 50.9324 122.53 50.6029 120.579 50.8743C118.631 51.1457 116.743 52.0255 116.9 53.1837C117.027 54.0844 118.652 55.6219 120.576 55.6219C120.739 55.6219 120.903 55.6112 121.068 55.5878C122.353 55.4098 123.295 54.5937 123.743 54.1235C124.424 53.4065 124.819 52.6075 124.747 52.088" fill="white"/>
<path d="M156.883 101.588C156.168 99.4233 153.865 98.7271 150.04 99.5174C138.682 101.863 134.614 100.238 133.278 99.2542C142.107 85.7978 149.37 69.5314 153.288 54.3551C155.144 47.1662 156.169 40.4897 156.253 35.0479C156.346 29.0752 155.329 24.6861 153.232 22.0049C144.777 11.1962 132.369 5.39836 117.348 5.23931C107.022 5.12317 98.2975 7.76711 96.6062 8.51062C93.0445 7.62447 89.1616 7.08041 84.9344 7.01098C77.1826 6.88538 70.4818 8.74226 64.9341 12.5273C62.5243 11.6298 56.2966 9.49082 48.6805 8.26321C35.5135 6.1425 25.0504 7.74944 17.5837 13.0417C8.67436 19.3572 4.56126 30.6461 5.35802 46.5944C5.62613 51.9599 8.68193 68.466 13.5041 84.2735C19.8516 105.079 26.7518 116.857 34.0115 119.28C34.8613 119.564 35.841 119.762 36.9216 119.762C39.5699 119.762 42.8168 118.568 46.195 114.504C50.3154 109.559 54.5776 104.734 58.9765 100.034C61.8304 101.567 64.9657 102.423 68.1723 102.508C68.1786 102.592 68.1868 102.676 68.1943 102.76C67.6424 103.418 67.1019 104.086 66.5731 104.764C64.3512 107.586 63.8888 108.173 56.737 109.646C54.7025 110.067 49.2993 111.181 49.2199 114.97C49.1341 119.111 55.6071 120.849 56.3446 121.034C58.9146 121.677 61.3907 121.995 63.7519 121.995C69.4945 121.995 74.5482 120.107 78.5868 116.453C78.4626 131.213 79.0776 145.758 80.849 150.189C82.3 153.817 85.844 162.683 97.039 162.682C98.6817 162.682 100.49 162.491 102.479 162.064C114.163 159.559 119.236 154.392 121.199 143.001C122.249 136.914 124.052 122.377 124.9 114.58C126.689 115.139 128.992 115.394 131.482 115.394C136.675 115.394 142.667 114.29 146.425 112.545C150.647 110.583 158.265 105.77 156.883 101.588V101.588ZM129.059 48.8981C129.021 51.1999 128.704 53.2897 128.368 55.471C128.007 57.8171 127.634 60.2426 127.54 63.187C127.447 66.0525 127.805 69.0316 128.15 71.9128C128.849 77.7321 129.566 83.7231 126.79 89.6346C126.329 88.817 125.918 87.972 125.56 87.1043C125.215 86.2674 124.465 84.923 123.428 83.0623C119.391 75.8191 109.938 58.8572 114.777 51.9359C116.218 49.8758 119.877 47.7576 129.059 48.8981V48.8981ZM117.929 9.90044C131.387 10.1977 142.033 15.235 149.57 24.8716C155.352 32.2632 148.986 65.8959 130.557 94.9111C130.372 94.6754 130.185 94.4403 129.998 94.2061L129.765 93.9145C134.527 86.0458 133.596 78.2604 132.767 71.358C132.426 68.5254 132.104 65.8499 132.186 63.3366C132.271 60.6731 132.623 58.3883 132.964 56.1792C133.382 53.457 133.808 50.6401 133.69 47.3196C133.778 46.9712 133.813 46.5596 133.767 46.0711C133.468 42.8869 129.834 33.357 122.428 24.7315C118.377 20.0136 112.469 14.7339 104.402 11.1729C107.872 10.4533 112.616 9.78242 117.929 9.90044V9.90044ZM42.62 111.53C38.898 116.008 36.328 115.149 35.4826 114.868C29.9754 113.03 23.5849 101.384 17.9509 82.9159C13.0757 66.9361 10.2269 50.8673 10.001 46.3615C9.28943 32.1111 12.742 22.1797 20.2636 16.8426C32.5044 8.1578 52.6296 13.3561 60.7163 15.9924C60.6003 16.1073 60.4791 16.2146 60.3643 16.3314C47.0939 29.7398 47.4087 52.6485 47.4415 54.049C47.4403 54.5893 47.4857 55.3543 47.5475 56.4064C47.7759 60.2597 48.201 67.4309 47.0655 75.5521C46.0108 83.0989 48.336 90.4854 53.444 95.8181C53.9682 96.3643 54.5192 96.8842 55.0949 97.3758C52.8213 99.8121 47.88 105.2 42.62 111.53V111.53ZM56.8007 92.5998C52.6838 88.3016 50.814 82.3232 51.67 76.1959C52.8686 67.6171 52.4264 60.1454 52.1886 56.1312C52.1552 55.5695 52.1255 55.0772 52.1085 54.689C54.0471 52.9691 63.0309 48.1533 69.4377 49.622C72.361 50.2917 74.1426 52.2837 74.8832 55.7096C78.7162 73.4472 75.3904 80.84 72.7181 86.7811C72.1674 88.0049 71.6469 89.1619 71.2028 90.3585L70.8584 91.2838C69.9866 93.6229 69.1753 95.7979 68.6725 97.8631C64.2957 97.8505 60.0382 95.9797 56.8007 92.5992V92.5998ZM57.4725 116.521C56.1945 116.202 55.0451 115.647 54.3707 115.187C54.934 114.922 55.9364 114.56 57.675 114.202C66.0886 112.469 67.3881 111.246 70.2256 107.642C70.876 106.815 71.6135 105.878 72.6348 104.737L72.6361 104.736C74.1571 103.032 74.8529 103.321 76.1146 103.845C77.1372 104.267 78.1333 105.55 78.537 106.961C78.7281 107.628 78.9426 108.893 78.2405 109.877C72.3131 118.181 63.6756 118.074 57.4725 116.521V116.521ZM101.505 157.516C91.2119 159.723 87.5675 154.468 85.1659 148.462C83.6159 144.584 82.8539 127.097 83.3945 107.785C83.4014 107.528 83.3648 107.28 83.2942 107.046C83.231 106.585 83.1348 106.129 83.0065 105.682C82.2028 102.872 80.2441 100.522 77.8942 99.547C76.9605 99.1601 75.2472 98.4501 73.1881 98.9771C73.6271 97.1669 74.3886 95.1226 75.2144 92.9091L75.5607 91.9781C75.9505 90.9285 76.4401 89.841 76.9574 88.6898C79.7539 82.4741 83.5837 73.9603 79.4271 54.7269C77.8702 47.5228 72.6708 44.0047 64.7891 44.822C60.064 45.3112 55.7409 47.2186 53.5847 48.3124C53.121 48.5472 52.6971 48.7744 52.3009 48.9953C52.9027 41.7369 55.1763 28.172 63.6813 19.5894C69.0365 14.1867 76.1682 11.5181 84.8574 11.662C101.978 11.9423 112.958 20.7331 119.154 28.059C124.493 34.3713 127.384 40.7302 128.538 44.16C119.861 43.277 113.959 44.9906 110.968 49.2699C104.46 58.5782 114.528 76.6446 119.368 85.3276C120.255 86.9187 121.021 88.294 121.262 88.8785C122.838 92.6995 124.878 95.2507 126.367 97.1126C126.824 97.6832 127.267 98.2367 127.604 98.7202C124.976 99.4782 120.255 101.23 120.685 109.985C120.339 114.377 117.871 134.945 116.618 142.211C114.963 151.811 111.432 155.387 101.505 157.517V157.516ZM144.468 108.326C141.78 109.574 137.283 110.51 133.011 110.711C128.292 110.932 125.89 110.182 125.325 109.721C125.06 104.265 127.089 103.695 129.237 103.092C129.575 102.997 129.904 102.904 130.222 102.793C130.419 102.954 130.636 103.114 130.873 103.27C134.666 105.775 141.43 106.045 150.98 104.072L151.085 104.052C149.797 105.257 147.593 106.874 144.468 108.326Z" fill="white"/>
</svg>
