<svg width="186" height="167" viewBox="0 0 186 167" fill="none" xmlns="http://www.w3.org/2000/svg">
<path d="M0.807617 82.7934C0.807617 96.7527 14.4445 109.783 35.9432 117.129C31.65 138.732 35.1743 156.145 46.944 162.93C59.0416 169.904 77.0647 165.076 94.1714 150.129C110.846 164.473 127.699 170.117 139.458 163.313C151.545 156.319 155.22 137.726 150.809 115.448C173.201 108.048 185.727 96.9364 185.727 82.7934C185.727 69.1581 172.065 57.3623 150.856 50.0641C155.605 26.8655 151.581 9.87533 139.324 2.81033C127.507 -4.00113 110.458 1.93565 93.5383 16.6541C75.9353 1.03191 59.0554 -3.73741 46.811 3.3472C35.0049 10.1783 31.6362 27.908 35.9432 49.9108C15.1699 57.1502 0.807617 69.2133 0.807617 82.7934Z" fill="white"/>
<path d="M146.364 57.3114C144.616 56.7121 142.853 56.1569 141.077 55.6464C141.372 54.4501 141.644 53.2486 141.894 52.0423C145.896 32.625 143.28 16.9825 134.344 11.8332C125.778 6.8946 111.766 12.0439 97.6156 24.3526C96.2212 25.5682 94.8578 26.8189 93.5266 28.1034C92.6352 27.2493 91.728 26.4118 90.8055 25.5912C75.9752 12.4289 61.11 6.88298 52.1842 12.0475C43.6254 16.9999 41.0903 31.706 44.6931 50.1077C45.0515 51.93 45.4562 53.7429 45.9068 55.5446C43.8035 56.1418 41.7721 56.7782 39.8286 57.4553C22.4422 63.5141 11.3381 73.0106 11.3381 82.8602C11.3381 93.0338 23.2576 103.238 41.368 109.425C42.8365 109.924 44.3172 110.387 45.8087 110.812C45.3242 112.753 44.894 114.708 44.5186 116.673C41.0838 134.755 43.7664 149.112 52.3026 154.034C61.1194 159.116 75.917 153.892 90.3265 141.302C91.4654 140.307 92.6087 139.252 93.7534 138.145C95.1952 139.536 96.6756 140.886 98.1927 142.194C112.15 154.199 125.935 159.047 134.464 154.112C143.272 149.015 146.134 133.591 142.418 114.825C142.134 113.392 141.803 111.928 141.433 110.437C142.472 110.131 143.492 109.814 144.487 109.484C163.314 103.25 175.562 93.1697 175.562 82.8602C175.562 72.975 164.101 63.4146 146.364 57.3114V57.3114Z" fill="#53C1DE"/>
<path d="M142.28 102.828C141.383 103.125 140.461 103.412 139.522 103.691C137.443 97.1137 134.638 90.1199 131.206 82.8951C134.482 75.841 137.178 68.9373 139.199 62.4026C140.878 62.8894 142.509 63.4015 144.081 63.9428C159.278 69.1712 168.548 76.9031 168.548 82.8602C168.548 89.206 158.536 97.4443 142.281 102.828H142.28ZM135.536 116.187C137.179 124.485 137.414 131.988 136.325 137.852C135.347 143.122 133.38 146.636 130.948 148.043C125.773 151.037 114.704 147.145 102.769 136.878C101.4 135.701 100.021 134.445 98.639 133.115C103.267 128.056 107.891 122.174 112.405 115.643C120.344 114.939 127.845 113.788 134.647 112.216C134.981 113.568 135.279 114.892 135.536 116.187V116.187ZM67.3256 147.525C62.2693 149.31 58.2421 149.361 55.8081 147.958C50.6275 144.973 48.4747 133.443 51.4117 117.98C51.7609 116.153 52.1608 114.336 52.6109 112.53C59.3374 114.017 66.7835 115.088 74.7419 115.733C79.2851 122.123 84.0435 127.998 88.8389 133.142C87.8197 134.127 86.7764 135.088 85.71 136.022C79.3382 141.589 72.9532 145.539 67.3264 147.525H67.3256ZM43.6371 102.789C35.6293 100.053 29.0161 96.4977 24.4831 92.6183C20.4101 89.1312 18.3533 85.6695 18.3533 82.8602C18.3533 76.8835 27.2689 69.2591 42.1385 64.0772C44.0048 63.4296 45.8897 62.8368 47.7908 62.2995C49.8462 68.9809 52.5418 75.9667 55.795 83.031C52.4997 90.2006 49.7655 97.2975 47.6912 104.057C46.3296 103.668 44.9779 103.245 43.6371 102.789V102.789ZM51.5781 48.7608C48.4914 32.9941 50.541 21.1009 55.6991 18.1165C61.1936 14.9375 73.3421 19.4707 86.1468 30.835C86.9652 31.5615 87.7872 32.3221 88.6106 33.1089C83.8399 38.2298 79.1252 44.0598 74.6212 50.4136C66.8976 51.1291 59.5038 52.2784 52.7068 53.8178C52.2881 52.1417 51.9118 50.4552 51.5781 48.7601V48.7608ZM122.417 66.245C120.811 63.473 119.146 60.736 117.423 58.0358C122.663 58.6969 127.683 59.5759 132.397 60.6518C130.982 65.1858 129.218 69.9268 127.141 74.7869C125.623 71.9084 124.048 69.0606 122.417 66.245V66.245ZM93.5289 38.1201C96.7646 41.6239 100.005 45.5367 103.193 49.7815C96.7268 49.4761 90.2497 49.4746 83.7833 49.7772C86.9739 45.5716 90.2423 41.6646 93.5289 38.1201V38.1201ZM64.4555 66.2929C62.8445 69.0861 61.2989 71.9165 59.82 74.7818C57.777 69.9384 56.029 65.1763 54.6016 60.5777C59.2873 59.5294 64.284 58.6729 69.49 58.0227C67.7473 60.7397 66.0687 63.4972 64.4555 66.2929V66.2929ZM69.6398 108.198C64.2615 107.598 59.1891 106.785 54.5049 105.766C55.9549 101.086 57.7414 96.2216 59.828 91.2743C61.3131 94.1417 62.8655 96.9738 64.4839 99.7683C66.1352 102.619 67.8544 105.43 69.6398 108.198V108.198ZM93.7229 128.096C90.3978 124.509 87.0815 120.543 83.8421 116.276C86.9863 116.4 90.1922 116.462 93.4504 116.462C96.798 116.462 100.107 116.387 103.364 116.242C100.166 120.586 96.9368 124.559 93.7229 128.096ZM127.208 91.0222C129.403 96.0233 131.253 100.862 132.723 105.462C127.961 106.548 122.82 107.423 117.403 108.073C119.139 105.322 120.82 102.537 122.445 99.7196C124.097 96.8562 125.685 93.9563 127.208 91.0222V91.0222ZM116.368 96.2165C113.88 100.536 111.253 104.774 108.489 108.923C103.617 109.271 98.5816 109.45 93.4504 109.45C88.3403 109.45 83.369 109.291 78.5816 108.981C75.7466 104.842 73.0694 100.597 70.5555 96.255C68.0534 91.9365 65.7163 87.5246 63.5492 83.0288C65.7108 78.5316 68.0409 74.1173 70.5345 69.7953V69.7967C73.0273 65.4737 75.6835 61.2469 78.4973 57.1255C83.3813 56.7564 88.389 56.5632 93.4511 56.5632C98.5358 56.5632 103.55 56.7579 108.433 57.1299C111.218 61.245 113.857 65.457 116.345 69.7582C118.847 74.0707 121.209 78.4633 123.425 82.9293C121.231 87.4407 118.878 91.8726 116.369 96.2165H116.368ZM130.841 17.908C136.339 21.0784 138.478 33.8622 135.023 50.6271C134.797 51.7193 134.551 52.8072 134.285 53.8905C127.472 52.3191 120.073 51.1495 112.327 50.423C107.814 44.0002 103.139 38.1601 98.4449 33.1052C99.6749 31.92 100.934 30.7655 102.221 29.6428C114.346 19.0958 125.677 14.9317 130.841 17.908V17.908Z" fill="white"/>
<path d="M93.4504 68.202C101.55 68.202 108.115 74.765 108.115 82.8602C108.115 90.956 101.55 97.519 93.4504 97.519C85.3517 97.519 78.7858 90.956 78.7858 82.8602C78.7858 74.765 85.3517 68.202 93.4504 68.202" fill="#53C1DE"/>
</svg>
