<svg width="119" height="167" viewBox="0 0 119 167" fill="none" xmlns="http://www.w3.org/2000/svg">
<path d="M74.5691 6.86387C74.5691 3.52362 71.8624 0.815796 68.5235 0.815796C66.863 0.815796 65.3592 1.48537 64.2665 2.56931L63.4269 3.50383L16.8 66.5425H63.0725L74.3364 8.57049L74.5422 7.43807C74.5599 7.24905 74.5691 7.05753 74.5691 6.86387Z" fill="#3ECF8E"/>
<path d="M0 92.5492C0 97.8937 4.33073 102.226 9.67295 102.226H9.71569H56.1393L63.0726 66.5425H16.8001L2.77908 85.4986L1.87623 86.8208C0.696806 88.4245 0 90.4054 0 92.5492Z" fill="#3ECF8E"/>
<path d="M118.703 76.2195C118.703 70.8749 114.372 66.5425 109.03 66.5425H108.647H63.0725L56.1392 102.226H101.843L116.573 82.3115L117.161 81.4638C118.137 79.9526 118.703 78.1523 118.703 76.2195Z" fill="#3ECF8E"/>
<path d="M44.8322 160.952C44.8322 164.292 47.539 167 50.8778 167C52.6684 167 54.277 166.221 55.3841 164.984L55.6222 164.716L101.843 102.226H56.1393L45.0513 159.291L45.0218 159.444C44.8979 159.926 44.8322 160.431 44.8322 160.952Z" fill="#3ECF8E"/>
<path d="M44.8322 160.952C44.8322 164.292 47.539 167 50.8778 167C52.6684 167 54.277 166.221 55.3841 164.984L55.6222 164.716L101.843 102.226H56.1393L45.0513 159.291L45.0218 159.444C44.8979 159.926 44.8322 160.431 44.8322 160.952Z" fill="url(#paint0_linear)"/>
<defs>
<linearGradient id="paint0_linear" x1="82.8498" y1="107.891" x2="49.4191" y2="167" gradientUnits="userSpaceOnUse">
<stop stop-color="#23915F"/>
<stop offset="1" stop-color="#3ECF8E" stop-opacity="0"/>
</linearGradient>
</defs>
</svg>
