<svg width="500" height="407" viewBox="0 0 500 407" fill="none" xmlns="http://www.w3.org/2000/svg">
<path d="M157.24 406.276C345.92 406.276 449.12 249.956 449.12 114.396C449.12 109.956 449.12 105.536 448.82 101.136C468.897 86.6142 486.227 68.6336 500 48.036C481.278 56.332 461.417 61.7726 441.08 64.176C462.495 51.3556 478.522 31.1914 486.18 7.43601C466.043 19.3851 444.013 27.8063 421.04 32.336C405.573 15.8897 385.117 4.99937 362.837 1.35027C340.558 -2.29884 317.696 1.49673 297.791 12.1496C277.886 22.8025 262.046 39.7188 252.724 60.2808C243.401 80.8427 241.115 103.904 246.22 125.896C205.435 123.851 165.536 113.253 129.113 94.7878C92.6897 76.323 60.5567 50.4049 34.8 18.716C21.6818 41.2992 17.664 68.0332 23.5646 93.4748C29.4651 118.916 44.8405 141.153 66.56 155.656C50.2348 155.172 34.2656 150.768 20 142.816C20 143.236 20 143.676 20 144.116C20.0065 167.8 28.2052 190.753 43.2056 209.082C58.2061 227.411 79.0846 239.986 102.3 244.676C87.1974 248.795 71.3516 249.397 55.98 246.436C62.5352 266.819 75.2973 284.644 92.4814 297.418C109.666 310.191 130.412 317.274 151.82 317.676C115.495 346.225 70.6212 361.723 24.42 361.676C16.2581 361.66 8.10408 361.166 0 360.196C46.9127 390.302 101.498 406.27 157.24 406.196" fill="#1DA1F2"/>
</svg>
